<svg width="714" height="244" viewBox="0 0 714 244" fill="none" xmlns="http://www.w3.org/2000/svg">
<g id="WaveCushion">
<g id="ZoneC">
<path id="ZoneC1" d="M248 9.99999C248 4.47715 252.477 0 258 0H342C347.523 0 352 4.47715 352 10V227H248V9.99999Z" fill="#696363"/>
<path id="ZoneC2" d="M581 9.99999C581 4.47715 585.477 0 591 0H675C680.523 0 685 4.47715 685 10V227H581V9.99999Z" fill="#696363"/>
</g>
<g id="ZoneB">
<path id="ZoneB1" d="M137 9.99999C137 4.47715 141.477 0 147 0H231C236.523 0 241 4.47715 241 10V227H137V9.99999Z" fill="#696363"/>
<path id="ZoneB2" d="M470 9.99999C470 4.47715 474.477 0 480 0H564C569.523 0 574 4.47715 574 10V227H470V9.99999Z" fill="#696363"/>
</g>
<g id="ZoneA">
<path id="ZoneA1" d="M26 9.99999C26 4.47715 30.4772 0 36 0H120C125.523 0 130 4.47715 130 10V227H26V9.99999Z" fill="#696363"/>
<path id="ZoneA2" d="M359 9.99999C359 4.47715 363.477 0 369 0H453C458.523 0 463 4.47715 463 10V227H359V9.99999Z" fill="#696363"/>
</g>
<g id="Base">
<path id="Base_2" d="M3 244C3 234.611 10.6112 227 20 227H697C706.389 227 714 234.611 714 244H3Z" fill="#524F4F"/>
</g>
</g>
</svg>
